<?xml version="1.0" encoding="UTF-8"?>
<svg id="Layer_1" data-name="Layer 1"
  xmlns="http://www.w3.org/2000/svg" viewBox="0 0 500 500">
  <path fill="#f1f1f1" d="M373.005,353.995c2.76-7.05,7.388-13.336,10.016-20.474,13.875-37.685,2.263-80.95-23.507-110.535-5.84-6.705-29.752-30.534-37.265-31.776-7.103-1.174-14.938,5.054-20.58,8.959-25.442,17.611-49.205,38.176-70.593,60.469-.404,2.299,10.365,8.777,12.616,10.17,33.526,20.748,82.11,31.598,98.488,71.512,15.31,37.311,3.665,83.347-21.17,113.68,5.949-28.3,16.308-57.554,5.75-86.26-18.108-49.232-86.998-48.115-125.07-73.93-58.253-39.499,28.655-109.183,58.849-136.769l1.463-2.516-50.329-27.698-114.668-45.816c49.024,1.107,97.493,12.187,143.242,29.243,11.571,4.314,38.166,13.847,46.695,21.305,5.974,5.224,10.407,16.405,16.088,22.912,17.437,19.973,40.634,11.802,59.494,27.506,42.251,35.181,62.327,113.754,24.447,158.494-1.31,1.547-12.437,13.086-13.965,11.525Z"/>
  <path fill="#f1f1f1" d="M333.773,94.28c38.03-3.982,53.832,50.754,17.919,66.912-47.357,21.307-70.517-61.405-17.919-66.912Z"/>
  <path fill="#f1f1f1" d="M147.005,449.995c-.433-1.882,1.063-2.37,1.993-3.497,3.277-3.97,7.953-7.61,11.516-11.484,31.109-33.829,60.599-71.746,72.547-116.972l33.479,10.937c-16.5,35.226-44.197,65.453-74.065,89.997-4.119,3.384-43.121,33.29-45.47,31.02Z"/>
  <path fill="#f1f1f1" d="M175.995,86.994c-9.791.58-9.744-9.457-13.578-15.911-9.237-15.549-30.108-21.872-45.755-11.921-5.644,3.589-13.524,16.447-18.426,17.657-2.064.51-6.206-.638-6.08-3.12,17.098-42.614,82.877-35.321,83.839,13.295Z"/>
  <path fill="#f1f1f1" d="M90,89.996c10.393-1.481,10.01,10.177,13.617,16.887,5.009,9.316,20.378,17.571,30.83,17.15,10.901-.439,21.541-13.483,31.533-6.533-25.342,30.222-76.004,11.572-75.98-27.504Z"/>
</svg>