<?xml version="1.0" encoding="UTF-8"?>
<svg id="Layer_1" data-name="Layer 1"
  xmlns="http://www.w3.org/2000/svg" viewBox="0 0 500 500">
  <path fill="#f1f1f1" d="M262,241h-21.5c-.477,0-8.233,2.482-9.027,2.973-1.103.681-4.913,5.591-4.472,6.016,4.422-.104,7.27,3.584,9.973,6.538,9.621,10.514,56.887,80.158,62.6,81.43,5.759,1.282,2.44-15.804,2.386-18.416-.191-9.315-.458-19.86-.006-29.089.146-2.987.666-12.745,1.253-14.747,1.892-6.449,12.662-8.42,14.564,1.025l.281,187.82c-1.184,9.094-14.598,9.086-16.053-4.048-3.302-29.793,4.569-60.687-.538-90.462l-78.297-103.703-4.192-12.32c-23.141,5.428-25.715,38.986-23.954,58.465.721,7.972,5.535,13.668,5.978,21.512-1.042,1.152-9.535-7.855-10.506-8.983-16.933-19.663-23.336-45.145-15.198-70.222,3.046-9.384,13.369-20.284-4.705-17.702-14.248,2.036-26.815,16.353-28.478,30.519-1.752,14.932,4.287,22.657,6.886,36.387-2.423,2.561-26.066-18.095-28.507-20.983-13.584-16.071-15.785-40.764-2.921-57.946,28.262-37.747,90.889-4.299,125.454,7.412,5.797,1.964,16.969,1.718,18.979,8.521Z"/>
  <path fill="#f1f1f1" d="M370.988,133.002c4.974,27.834,2.51,61.774-13.76,85.726-34.036,50.107-99.338,6.22-142.229-5.739-1.503-1.385.104-1.816,1.484-1.991,23.881-3.029,52.447,23.608,76.552,10.536,12.352-6.698,23.379-24.32,24.843-38.157,2.116-20.003-6.234-34.835-13.872-52.372,1.881-.433,2.37,1.062,3.497,1.993,10.703,8.847,22.79,33.253,25.049,46.951.573,3.477-.205,18.022,3.907,18.07,2.099.025,10.191-6.245,12.065-7.996,17.135-16.009,15.357-33.05,20.477-53.523.348-1.39-.008-3.116,1.988-3.498Z"/>
  <path fill="#f1f1f1" d="M193.004,200.996c-5.147-.034-12.879,2.748-17.559.059-2.245-1.29-14.252-17.71-16.836-21.165-7.173-9.591-13.743-21.523-21.639-30.361-1.852-2.073-5.698-6.805-8.414-6.578l-2.645,1.459c-2.365,3.039.053,7.612.13,11.047.262,11.601,1.769,37.791-.27,47.812-.79,3.882-13.167,17.397-15.766,14.726.144-4.157-.203-8.375-.046-12.538,1.772-46.998,1.856-94.843,1.089-142.007-.075-4.588-2.264-7.261.086-11.826,3.969-7.712,13.492-5.601,14.802,2.939,2.21,14.409-2.252,32.09-.972,46.972,1.026,11.932,11.545,22.948,18.64,32.36,13.409,17.788,28.488,34.476,41.213,52.787,1.352,1.946,9.593,12.965,8.187,14.313Z"/>
  <path fill="#f1f1f1" d="M366.769,233.251c41.28-5.035,35.319,61.59-4.568,49.048-25.182-7.918-22.113-45.794,4.568-49.048Z"/>
</svg>