<?xml version="1.0" encoding="UTF-8"?>
<svg id="Layer_1" data-name="Layer 1"
  xmlns="http://www.w3.org/2000/svg" viewBox="0 0 500 500">
  <path fill="#f1f1f1" d="M254.044,214.977c26.287-6.282,54.31-8.212,79.628,2.851,17.41,7.608,30.83,22.966,46.308,33.672.207,4.529-32.62,4.927-36.392,4.412-5.847-.799-13.817-7.984-20.6-10.4-22.236-7.92-38.911,1.679-60.477.478-55.469-3.087-58.811-56.388-53.22-100.2.862-6.757,4.121-12.883,1.702-19.797-9.992,2.886-21.281,1.542-31.204,4.296-18.027,5.002-30.234,31.333-42.275,44.725-1.567,1.743-10.753,11.798-12.509,9.981-.433-4.98.736-9.822,1.866-14.624,3.02-12.828,12-43.773,19.602-53.398,9.961-12.612,31.07-17.919,46.311-21.689,18.556-4.59,37.701-5.029,53.227,8.205,16.91,14.415-3.249,32.018-5.771,48.25-3.458,22.251,11.79,41.358,13.805,63.237Z"/>
  <path fill="#f1f1f1" d="M266,337l-43.284,43.264c-5.244,2.229-11.42-4.268-7.266-9.325,34.006-41.997,70.984-81.659,107.574-121.451l3.928.026,11.04,7.972-59.992,65.014v117.5h-12v-103Z"/>
  <path fill="#f1f1f1" d="M100,302.99c15.687-15.221,38.556-25.802,59.966-30.524,24.055-5.305,67.688-7.405,53.044-44.466,17.218,17.16,37.028,34.173,8.899,53.408-15.781,10.792-47.393,14.981-66.552,17.448-18.249,2.35-37,3.78-55.357,4.133Z"/>
  <path fill="#f1f1f1" d="M400,301h-12v-98l-25.981,28.543-12.556-9.528,1.546-3.507c14.314-14.026,27.022-29.677,40.964-44.035,3.485-3.589,15.445-16.678,18.651-18.343,5.362-2.785,11.578-.352,10.2,6.14-1.417,6.675-17.026,19.646-20.825,26.229v112.5Z"/>
  <path fill="#f1f1f1" d="M258.738,32.237c39.354-6.672,38.967,53.361,7.674,57.676-40.404,5.571-37.886-52.553-7.674-57.676Z"/>
  <path fill="#f1f1f1" d="M361,148.01c-4.575,4.211-12.191,8.225-18.018,10.472-20.988,8.093-48.16,6.842-67.901-4.063-8.695-4.803-16.651-11.622-24.998-17.022,3.801-10.643,12.692-22.881,1.918-32.387,8.976,1.474,17.77,8.098,24.527,13.963,11.739,10.189,15.041,20.219,31.214,25.786,17.291,5.951,35.374,3.883,53.259,3.251Z"/>
</svg>