<?xml version="1.0" encoding="UTF-8"?>
<svg id="Layer_1" data-name="Layer 1"
  xmlns="http://www.w3.org/2000/svg" viewBox="0 0 500 500">
  <path fill="#f1f1f1" d="M133.982,127.006c4.958,10.302,13.818,20.551,22.491,28.021,33.143,28.543,80.11,22.181,113.539,50.461,77.339,65.428-23.757,170.952-77.537,214.487-19.536,15.815-40.593,30.494-62.966,42.034-.368-4.942,6.212-11.498,9.518-15.482,14.528-17.513,32.356-32.501,47.487-49.513,24.123-27.123,76.923-94.053,79.525-129.475,3.275-44.577-39.119-54.583-71.026-68.053-24.429-10.313-46.954-28.276-58.188-52.812-1.834-4.006-9.135-19.124-2.844-19.668Z"/>
  <path fill="#f1f1f1" d="M297.995,312.005c1.648,8.65-.66,17.304,4.569,24.931,8.509,12.409,27.842,17.124,40.793,23.207,40.599,19.069,76.102,51.385,64.632,100.853-1.228.919-3.757-2.089-4.401-3.084-2.607-4.03-4.76-10.938-7.418-15.582-10.161-17.759-21.309-32.108-38.863-43.137-25.919-16.284-80.472-32.592-69.867-73.251,1.304-4.999,5.258-12.455,10.554-13.936Z"/>
  <path fill="#f1f1f1" d="M354,37.01c-6.532,6.642-17.72,9.719-26.481,13.009-86.869,32.625-182.292,63.379-272.076,86.924-10.043,2.634-29.608,8.583-39.097,8.99-1.84.079-3.144.337-4.336-1.449l7.307-4.667c96.346-35.352,194.231-68.286,293.667-94.334,13.451-3.524,27.052-7.734,41.016-8.474Z"/>
  <path fill="#f1f1f1" d="M287.775,147.284c2.009-.211,3.629-.393,5.697-.279,30.134,1.659,31.197,49.014.012,50.976-32.565,2.049-36.643-47.444-5.709-50.697Z"/>
  <path fill="#f1f1f1" d="M419.995,242.005c1.338,1.182-5.666,7.036-6.666,7.824-26.488,20.854-82.169,34.147-105.742,3.084-5.182-6.828-10.612-18.961-6.093-26.888,4.25,2.39,6.202,6.715,10.028,9.953,9.265,7.841,23.128,13.138,35.099,14.901,25.522,3.76,48.768-3.833,73.374-8.874Z"/>
</svg>