<?xml version="1.0" encoding="UTF-8"?>
<svg id="Layer_1" data-name="Layer 1"
  xmlns="http://www.w3.org/2000/svg" viewBox="0 0 500 500">
  <path fill="#f1f1f1" d="M284.99,160c-2.485-9.681-11.429-16.513-17.985-23.505,8.498.199,19.098,3.725,26.978,7.022,50.867,21.281-9.253,49.802-29.917,65.048-11.659,8.602-26.004,18.298-27.047,33.947-.603,9.038,1.915,18.596,10.981,22.478l-6.966-8.5c.148-1.926,17.595-6.627,20.545-7.412,44.811-11.928,69.216-3.274,103.896,24.947,18.765,15.27,36.075,33.717,53.52,50.479-8.147.874-16.842-1.31-24.812-3.188-17.342-4.086-38.435-12.164-51.708-24.292-6.476-5.918-7.919-11.617-17.248-14.752-13.075-4.393-22.391.273-34.641-1.359-8.264-1.101-18.019-6.855-26.58-7.905.024,1.564,2.971,1.772,4.243,2.241,15.989,5.89,36.633,9.222,51.427,16.573,41.468,20.606,35.749,85.619,26.313,123.17l-6.477-35.006c-3.596-14.666-10.292-33.971-21.473-44.527-14.881-14.048-71.506-29.389-91.473-26.397-4.555.683-14.786,8.336-16.971,8.015-16.717-28.086-34.234-57.543-23.303-91.289,5.395-16.656,15.776-32.886,21.299-49.701l23.924-24.098c-21.61-7.796-45.36-12.274-68.149-15.856-34.189-5.374-68.816-8.075-103.359-10.146l29.984-8.501c54.039-11.377,119.493-21.587,166.483,14.539,10.501,8.073,20.192,17.704,28.518,27.972Z"/>
  <path fill="#f1f1f1" d="M321.738,66.238c35.244-5.944,45.576,33.919,28.09,58.09-22.46,31.047-62.291,13.723-56.379-24.379,1.966-12.669,15.029-31.474,28.29-33.711Z"/>
  <path fill="#f1f1f1" d="M228.999,152.011c-2.847,2.946-6.823,4.751-10.011,7.477-5.414,4.628-9.986,10.881-15.632,15.355-1.969.37-24.99-11.225-30.15-12.549-20.272-5.201-48.073.685-67.973,6.44-17.57,5.081-34.3,12.509-51.233,19.257,15.814-15.652,35.177-32.14,54.978-42.512,13.358-6.997,17.954-8.303,33.512-7.469,11.519.617,26.303,2.519,37.882,4.118,16.42,2.268,32.5,6.266,48.627,9.883Z"/>
</svg>