<?xml version="1.0" encoding="UTF-8"?>
<svg id="Layer_1" data-name="Layer 1"
  xmlns="http://www.w3.org/2000/svg" viewBox="0 0 500 500">
  <path fill="#f1f1f1" d="M95,291c2.735,1.56,3.1,5.055,5.002,7.498,4.601,5.911,13.201,11.403,19.998,14.492-11.571-11.59-28.158-23.825-29.988-41.503-2.774-26.792,11.977-17.278,25.879-7.878,23.739,16.05,42.104,33.35,56.917,58.083,18.091,30.206,29.066,66.104,34.2,100.801l-1.989.499c-3.268-5.451-7.55-10.114-11.04-15.471-13.271-20.367-22.279-45.422-38.009-63.991-8.188-9.665-18.915-17.309-28.475-25.525-1.994,11.398-16.273,38.049-28.254,39.778-19.369,2.795-35.902-35.642-51.33-45.195-6.044-3.742-12.825-5.246-19.907-5.593,3.139-11.69,15.901-11.798,25.52-8.019,9.609,3.775,26.129,24.38,34.737,22.865,2.915-.513,6.738-5.863,6.738-8.34v-22.5Z"/>
  <path fill="#f1f1f1" d="M136.012,169.993c3.298-1.056-2.289-5.395-.5-7.006,27.717,7.336,48.984,32.207,75.213,41.787,1.781.65,24.963,5.751,23.272,8.213-.876.062-6.649,2.303-4.988,4.012,9.614-4.56,18.506-10.677,27.944-15.546,5.247-2.707,20.567-11.277,25.49-10.465,5.766.951,6.554,9.598,1.248,13.204-11.964,8.131-34.746,16.13-48.711,23.289-4.993,2.559-11.262,9.692-17.06,5.094-6.598-5.233,1.245-10.517.074-11.57-27.09.617-46.564-27.439-73.985-25.015l-1.475-11.025-3.525-9.96c4.162,31.872,4.771,67.521-.108,99.399-.157,1.027-.527,2.996-1.398,3.591-11.132-9.37-22.141-19.137-35.148-25.852-3.681-1.9-9.843-2.022-10.413-6.587-.753-6.038-.91-35.628.268-40.845.992-4.396,9.02-6.828,12.433-10.067,9.84-9.338,11.684-25.872,5.359-37.638,1.132-1.036,27.719,5.539,26.008,12.986Z"/>
  <path fill="#f1f1f1" d="M426.995,431.995c-3.008.276-3.535-3.15-4.145-5.345-2.258-8.117-1.652-16.767-2.985-25.015-3.083-19.076-8.214-44.328-18.059-60.941-15.609-26.339-60.337-28.874-60.834-69.238-.143-11.581,9.365-15.877,19.4-11.329,11.171,5.064,53.821,47.513,60.431,58.57,4.949,8.277,8.491,19.115,9.233,28.767,1.386,18.04-.147,43.532-.994,62.077-.33,7.223-1.867,15.143-2.046,22.454Z"/>
  <path fill="#f1f1f1" d="M349.005,253.995c1.849-5.874,6.108-10.765,7.702-16.789,2.18-8.24,2.16-17.587,2.457-26.047,22.044-7.711,35.398-31.347,28.84-54.152,1.849-1.604,9.593,6.739,10.973,8.517,18.099,23.312,11.678,74.285,5.73,101.683-.659,3.035-5.272,22.758-7.206,22.774-14.539-12.828-28.035-33.542-48.495-35.986Z"/>
  <path fill="#f1f1f1" d="M384.761,78.26c37.707-5.506,50.103,49.98,21.175,70.176-19.781,13.81-44.347-4.837-46.829-26.044-1.984-16.946,6.627-41.354,25.654-44.132Z"/>
  <path fill="#f1f1f1" d="M119.761,84.26c34.383-4.954,47.43,32.428,32.409,58.409-12.515,21.645-39.163,20.245-51.586-.752-10.336-17.469-3.857-54.338,19.178-57.657Z"/>
  <path fill="#f1f1f1" d="M262.003,226.014c22.932-8.471,46.478-19.337,65.012-35.499,11.893-10.371,33.216-37.621,49.485-37.596,18.626.029,8.946,30.181,1.479,39.56-16.222,20.374-72.019,37.899-97.492,39.509-5.333.337-18.447,1.279-18.484-5.974Z"/>
  <path fill="#f1f1f1" d="M349.011,301.003l30.8,23.48c-8.485,13.607-23.797,17.934-39.19,16.395-17.377-1.737-31.903-13.016-47.638-19.363-3.614-1.458-26.584-8.32-26.98-10.029,6.485-8.689,24.515-8.36,34.48-7.471,8.407.75,16.837,5.028,25.138,5.863,7.761.781,22.509,1.333,23.39-8.876Z"/>
  <path fill="#f1f1f1" d="M32.005,263.995c3.156-38.871,22.898-82.005,58.691-100.798,13.041-6.847,21.585-5.53,20.335,11.342-1.684,22.731-23.621,24.531-38.362,34.631-22.021,15.089-23.911,33.66-37.496,52.504-.896,1.242-1.048,2.779-3.168,2.321Z"/>
  <path fill="#f1f1f1" d="M485.999,193.011l-20.673,12.815c-17.031,8.73-42.844,2.781-52.131-14.522-2.923-5.446-3.427-11.609-5.713-17.287-1.444-3.585-8.211-12.914-6.355-15.893,10.536-3.991,17.631,1.727,23.702,9.546,9.925,12.783,9.594,28.425,30.683,26.332,3.696-.367,7.326-2.446,11.097-2.896,6.738-.803,12.966.113,19.39,1.903Z"/>
</svg>