<?xml version="1.0" encoding="UTF-8"?>
<svg id="Layer_1" data-name="Layer 1"
  xmlns="http://www.w3.org/2000/svg" viewBox="0 0 500 500">
  <path fill="#f1f1f1" d="M408,110.01c-2.316,3.615-8.579,1.575-12.487,2.003-55.323,6.058-109.942,17.453-163.518,31.994,6.182,51.949-3.477,107.052-18.731,156.756-11.726,38.206-41.91,109.85-72.762,135.238-1.128.928-1.614,2.428-3.497,1.993,9.617-38.51,20.34-76.944,28.725-115.765,9.82-45.463,20.165-94.069,9.775-140.225-15.386,26.259-57.671,39.604-78.48,12.47-13.822-18.023-4.163-46.39,19.826-46.316l5.959,9.352c-5.838,5.969-10.491,19.593,1.697,20.544,13.694,1.068,43.003-15.753,48.685-28.364,1.939-4.305,2.067-8.902,3.797-13.203,11.306-5.93,23.365-10.457,34.707-16.293,5.992-3.083,6.191-5.704,14.908-7.092,42.536-6.776,96.671-5.326,139.855-4.062,13.839.405,27.717.231,41.541.969Z"/>
  <path fill="#f1f1f1" d="M296.99,441c-3.82-3.242-6.76-8.698-9.404-13.086-24.811-41.169-40.103-88.631-67.418-128.629l12.844-55.283c17.074,21.161,29.241,48.171,38.735,73.751,14.591,39.316,24.274,81.146,25.243,123.247Z"/>
  <path fill="#f1f1f1" d="M172.757,57.264c44.119-6.267,52.554,59.653,8.639,64.623-12.348,1.397-11.406-5.731-19.46-11.323-4.81-3.34-10.198-2.601-13.137-7.863-9.786-17.524,4.659-42.695,23.957-45.436Z"/>
  <path fill="#f1f1f1" d="M139.761,112.26c22.862-3.327,37.171,17.512,26.8,37.801-5.782,11.312-23.173,14.156-33.612,8.49-18.532-10.06-15.121-43.1,6.812-46.291ZM143.78,121.237c-25.793,2.819-10.894,42.251,10.151,28.194,12.362-8.258,6.139-29.974-10.151-28.194Z"/>
</svg>