<?xml version="1.0" encoding="UTF-8"?>
<svg id="Layer_1" data-name="Layer 1"
  xmlns="http://www.w3.org/2000/svg" viewBox="0 0 500 500">
  <path fill="#f1f1f1" d="M72,376.99c17.181-14.064,36.887-24.766,55.132-37.358,29.273-20.202,57.869-42.139,78.279-71.721,16.495-23.907,51.312-86.54,18.52-108.347-29.23-19.438-65.459,2.918-93.978,12.889-2.521.881-6.382,2.634-8.948,2.052,32.138-24.763,64.525-45.745,107.223-39.233,76.934,11.733,49.603,93.37,13.745,134.201-43.743,49.809-108.439,84.872-169.973,107.517Z"/>
  <path fill="#f1f1f1" d="M266,357.99c12.731-15.775,33.889-24.132,46.416-40.074,10.361-13.185,3.911-19.076-9.207-25.625-16.887-8.431-36.383-9.79-53.19-17.791,7.864-4.632,20.011-34.313,28.459-34.402,3.972-.042,20.836,8.157,25.546,10.378,16.647,7.848,43.59,19.732,42.011,42.002-1.441,20.324-35.177,42.25-51.363,51.694-8.879,5.181-18.983,10.694-28.672,13.818Z"/>
  <path fill="#f1f1f1" d="M273.759,83.259c8.298-1.13,18.168-.583,25.178,4.305,21.552,15.029,11.723,52.751-13.693,56.176-41.897,5.646-47.457-55.584-11.484-60.481Z"/>
  <path fill="#f1f1f1" d="M401,187.01c-28.75,32.152-76.803,41.123-112.703,14.696l-5.287-31.706c13.751,5.591,24.515,16.693,38.31,22.18,27.442,10.914,53.345,5.331,79.679-5.17Z"/>
</svg>