<?xml version="1.0" encoding="UTF-8"?>
<svg id="Layer_1" data-name="Layer 1"
  xmlns="http://www.w3.org/2000/svg" viewBox="0 0 500 500">
  <path fill="#f1f1f1" d="M449.995,243.005c.489,2.308-.257,1.604-1.275,2.248-7.586,4.795-32.797,9.208-42.178,9.789-21.239,1.316-62.749-1.462-77.054-19.03-9.892-12.15-17.542-38.658-6.493-51.517.158-.743-1.035-.679-1.481-.486-8.286,3.569-5.746,28.966-3.514,36.479-10.966,13.275-24.253,25.389-38.104,35.908-12.22,9.28-25.034,17.985-39.436,23.564-2.151,21.024-5.909,44.6-13.697,64.303-24.015,60.754-109.02,66.126-164.758,62.727l37.981-13.504c19.926-9.775,41.473-18.686,59.93-31.07,35.496-23.818,40.901-63.687,54.325-100.675,5.752-15.849,37.798-54.819,50.245-68.755,10.32-11.555,22.579-22.994,35.51-31.49-2.944-1.705-10.709,6.306-11.485,6.315-9.547-6.573-19.56-14.215-30.532-18.288-37.035-13.748-80.046,5.189-114.978,17.468,15.114-14.25,31.913-30.785,49.471-42.018,39.266-25.122,90.191-8.186,124.445,18.611,2.431,1.902,7.865,8.641,9.788,9.212,6.344,1.884,13.344-1.526,21.354,2.646,15.879,8.27-2.976,29.09-7.963,38.92,14.136,18.245,25.935,35.561,49.87,41.174,19.231,4.51,40.422,4.883,60.03,7.47Z"/>
  <path fill="#f1f1f1" d="M365.74,69.24c58.875-9.172,45.963,90.531-6.248,85.767-44.64-4.072-34.272-79.455,6.248-85.767Z"/>
  <path fill="#f1f1f1" d="M340.995,408.001c-2.409.298-1.598.028-2.105-1.391-6.559-18.361-5.062-42.32-12.115-60.885-11.67-30.718-58.899-29.99-83.612-45.878l2.803-19.381,18.565-9.445c36.507,4.83,81.642,25.759,84.51,67.438,1.593,23.148-4.614,46.881-8.046,69.542Z"/>
</svg>